<?xml version="1.0" standalone="no"?>
<!DOCTYPE svg PUBLIC "-//W3C//DTD SVG 20010904//EN"
 "http://www.w3.org/TR/2001/REC-SVG-20010904/DTD/svg10.dtd">
<svg version="1.0" xmlns="http://www.w3.org/2000/svg"
 width="862.000000pt" height="379.000000pt" viewBox="0 0 862.000000 379.000000"
 preserveAspectRatio="xMidYMid meet">
<metadata>
Created by potrace 1.16, written by Peter Selinger 2001-2019
</metadata>
<g transform="translate(0.000000,379.000000) scale(0.100000,-0.100000)"
fill="#000000" stroke="none">
<path d="M3386 3494 c-14 -14 -16 -113 -16 -939 0 -508 3 -930 6 -939 6 -14
99 -16 955 -16 l949 0 0 949 c0 856 -2 949 -16 955 -9 3 -431 6 -939 6 -826 0
-925 -2 -939 -16z m1844 -944 l0 -900 -900 0 -900 0 0 900 0 900 900 0 900 0
0 -900z"/>
<path d="M3800 3315 c-97 -32 -191 -127 -230 -232 -31 -82 -26 -204 12 -285
34 -74 112 -152 186 -186 50 -24 69 -27 157 -27 89 0 107 3 162 29 186 86 269
310 184 501 -29 65 -121 158 -184 186 -67 29 -219 36 -287 14z m268 -72 c199
-100 244 -356 88 -508 -59 -58 -103 -81 -179 -95 -139 -26 -283 53 -345 188
-64 141 -8 321 126 399 100 59 212 65 310 16z"/>
<path d="M3768 3165 c-34 -32 -72 -66 -82 -76 -17 -16 -20 -34 -22 -121 -1
-57 2 -110 5 -118 3 -8 40 -47 82 -86 l75 -72 107 2 106 2 75 76 75 77 0 106
0 107 -75 77 -76 76 -103 3 -103 4 -64 -57z m304 -62 l58 -57 0 -89 0 -88 -61
-60 -60 -59 -84 0 -83 0 -61 61 -61 61 0 83 0 84 58 60 57 60 90 0 89 1 58
-57z"/>
<path d="M4615 3316 c-65 -21 -97 -42 -151 -98 -63 -65 -89 -115 -105 -200
-22 -121 18 -243 108 -329 91 -87 166 -114 291 -107 101 6 175 39 244 110 28
29 63 77 77 108 23 48 26 68 26 155 0 87 -3 107 -26 155 -34 74 -115 154 -186
188 -47 22 -74 27 -148 29 -54 2 -106 -3 -130 -11z m262 -76 c148 -73 213
-242 154 -401 -25 -67 -48 -89 -124 -125 -48 -21 -70 -25 -116 -22 -141 10
-251 119 -251 247 0 56 42 135 91 170 127 93 299 -35 234 -174 -41 -84 -175
-72 -175 16 0 46 17 69 49 69 39 0 56 -22 44 -57 -13 -36 -6 -53 18 -53 25 0
52 60 43 95 -9 38 -59 75 -101 75 -108 0 -151 -137 -69 -219 34 -34 40 -36
101 -36 61 0 66 2 103 38 78 77 81 184 6 267 -58 64 -149 85 -235 55 -91 -33
-150 -118 -157 -231 -6 -91 14 -149 71 -211 52 -57 100 -85 167 -99 67 -15 24
-18 -50 -4 -164 31 -277 170 -268 330 14 237 250 374 465 270z"/>
<path d="M3859 2520 c-118 -20 -225 -103 -276 -214 -25 -55 -28 -72 -28 -166
0 -96 3 -110 28 -159 65 -123 183 -201 316 -209 293 -17 488 265 371 536 -30
70 -128 163 -200 189 -67 25 -149 34 -211 23z m202 -82 c71 -32 124 -86 158
-157 21 -46 26 -71 26 -136 0 -69 -4 -88 -29 -138 -50 -98 -142 -164 -239
-173 -37 -3 -45 -2 -27 4 84 29 160 92 196 162 26 52 31 169 9 227 -66 173
-267 218 -386 86 -67 -74 -65 -177 5 -251 37 -39 49 -45 92 -49 144 -12 225
165 110 241 -83 54 -192 -26 -156 -114 13 -32 48 -49 60 -30 4 7 3 27 -3 46
-11 37 -6 48 30 58 30 9 63 -25 63 -64 0 -92 -133 -109 -174 -24 -64 135 88
259 224 183 53 -30 94 -110 94 -184 0 -80 -40 -152 -106 -192 -104 -63 -206
-64 -301 -3 -100 63 -132 227 -70 357 9 19 37 57 62 85 92 98 236 125 362 66z"/>
<path d="M4668 2520 c-120 -20 -227 -104 -282 -220 -27 -57 -31 -75 -30 -150
1 -155 75 -275 212 -342 61 -30 74 -33 162 -33 83 0 102 3 155 28 67 31 157
113 184 167 31 62 44 127 39 203 -11 176 -135 313 -313 346 -64 12 -60 12
-127 1z m205 -84 c70 -36 120 -89 154 -163 22 -47 25 -65 21 -136 -5 -131 -64
-224 -174 -278 -41 -20 -63 -24 -144 -24 -83 0 -101 4 -146 27 -140 74 -209
246 -155 390 35 90 81 142 164 183 66 33 78 35 147 33 59 -2 87 -9 133 -32z"/>
<path d="M4548 2332 l-78 -78 0 -108 0 -108 74 -74 c41 -41 83 -74 93 -75 10
-1 60 -1 111 -2 l93 0 77 76 76 77 2 93 c1 50 -3 103 -8 116 -5 13 -40 54 -78
92 l-69 69 -107 0 -108 0 -78 -78z m334 -44 l58 -58 0 -83 0 -84 -61 -60 -60
-61 -85 1 -86 0 -60 59 -61 59 2 87 2 87 56 57 57 57 75 3 c42 2 82 1 90 -1 8
-3 41 -31 73 -63z"/>
<path d="M5560 1700 l0 -90 1260 0 1260 0 0 90 0 90 -1260 0 -1260 0 0 -90z"/>
<path d="M570 1680 l0 -90 1265 0 1265 0 0 90 0 90 -1265 0 -1265 0 0 -90z"/>
<path d="M3000 1170 c0 -5 14 -10 30 -10 l30 0 0 -330 0 -330 -25 0 c-14 0
-25 -4 -25 -10 0 -6 55 -10 145 -10 90 0 145 4 145 10 0 6 -13 10 -30 10 l-30
0 0 340 0 340 -120 0 c-73 0 -120 -4 -120 -10z"/>
<path d="M2119 1141 c-20 -16 -24 -29 -24 -71 0 -66 25 -90 95 -90 70 0 100
27 100 90 0 41 -4 52 -26 69 -35 28 -112 29 -145 2z"/>
<path d="M5848 1140 c-46 -36 -42 -126 8 -148 41 -19 107 -15 132 8 42 40 34
136 -13 154 -35 13 -102 6 -127 -14z"/>
<path d="M7888 1140 c-46 -36 -42 -126 8 -148 41 -19 107 -15 132 8 42 40 34
136 -13 154 -35 13 -102 6 -127 -14z"/>
<path d="M100 1120 c0 -5 11 -10 25 -10 l25 0 0 -305 0 -305 -25 0 c-14 0 -25
-4 -25 -10 0 -6 30 -10 70 -10 40 0 70 4 70 10 0 6 -11 10 -25 10 l-25 0 1
253 0 252 72 -262 72 -263 67 0 c62 0 68 2 73 23 3 12 32 135 65 272 l59 250
0 -262 1 -263 -30 0 c-16 0 -30 -4 -30 -10 0 -6 57 -10 150 -10 93 0 150 4
150 10 0 6 -11 10 -25 10 l-25 0 0 305 0 305 25 0 c14 0 25 5 25 10 0 7 -46
10 -132 8 l-131 -3 -51 -219 -50 -218 -56 218 -56 219 -132 3 c-86 2 -132 -1
-132 -8z"/>
<path d="M1500 1115 c0 -10 10 -15 30 -15 l30 0 0 -295 0 -295 -30 0 c-20 0
-30 -5 -30 -15 0 -13 35 -15 255 -15 l254 0 5 33 c3 17 8 67 11 110 6 71 5 77
-12 77 -11 0 -26 -15 -38 -37 -56 -104 -112 -153 -177 -153 l-38 0 0 295 0
295 45 0 c33 0 45 4 45 15 0 13 -26 15 -175 15 -149 0 -175 -2 -175 -15z"/>
<path d="M3950 1120 c0 -5 14 -10 30 -10 l30 0 0 -305 0 -305 -30 0 c-16 0
-30 -4 -30 -10 0 -6 68 -10 185 -10 117 0 185 4 185 10 0 6 -25 10 -55 10
l-55 0 0 124 0 123 83 5 c126 7 194 50 217 137 28 106 -17 198 -113 226 -60
18 -447 22 -447 5z m327 -34 c25 -21 28 -31 31 -100 7 -140 -12 -198 -70 -212
l-28 -6 0 171 c0 163 1 171 19 171 11 0 32 -11 48 -24z"/>
<path d="M2463 1067 l-83 -21 0 -63 c0 -61 -1 -63 -25 -63 -14 0 -25 -4 -25
-10 0 -5 11 -10 25 -10 l25 0 0 -170 c0 -191 7 -217 62 -246 67 -35 227 -14
245 32 5 12 11 10 33 -11 51 -48 195 -52 245 -5 27 26 50 83 41 105 -9 26 -22
16 -35 -25 -7 -23 -23 -47 -37 -57 -23 -15 -26 -15 -42 1 -14 14 -17 45 -20
196 l-4 180 66 0 c37 0 66 4 66 10 0 6 -28 10 -65 10 l-65 0 0 86 c0 65 -3 85
-12 81 -7 -2 -48 -12 -90 -22 l-78 -19 0 -63 0 -63 -60 0 -60 0 0 85 c0 62 -3
85 -12 84 -7 -1 -50 -11 -95 -22z m227 -304 c0 -156 -10 -203 -47 -233 -31
-24 -37 -25 -57 -4 -13 13 -16 45 -16 195 l0 179 60 0 60 0 0 -137z"/>
<path d="M5538 1067 l-88 -21 0 -63 c0 -61 -1 -63 -25 -63 -14 0 -25 -4 -25
-10 0 -5 11 -10 25 -10 l25 0 1 -162 c0 -186 9 -223 57 -251 42 -25 154 -27
200 -3 52 27 89 126 50 134 -13 2 -18 -3 -18 -20 0 -28 -23 -64 -50 -78 -14
-7 -23 -6 -34 6 -13 13 -16 45 -16 195 l0 179 60 0 c33 0 60 4 60 10 0 6 -27
10 -60 10 l-60 0 0 85 c0 47 -3 84 -7 84 -5 -1 -47 -11 -95 -22z"/>
<path d="M3477 929 c-115 -27 -169 -102 -170 -234 0 -80 22 -136 73 -178 44
-38 95 -50 193 -46 67 3 92 8 113 25 36 26 61 62 70 97 9 41 -21 35 -42 -8
-41 -87 -152 -106 -190 -32 -9 17 -19 59 -22 94 l-5 63 132 0 131 0 0 45 c0
92 -50 155 -140 174 -59 13 -90 13 -143 0z"/>
<path d="M5338 923 c-14 -14 -22 -15 -43 -5 -37 17 -150 15 -185 -3 -90 -46
-106 -185 -29 -250 17 -13 63 -34 102 -46 92 -27 117 -43 117 -74 0 -32 -26
-45 -89 -45 -41 0 -56 5 -84 30 -18 16 -42 47 -52 70 -30 67 -45 53 -45 -45 0
-77 2 -85 19 -85 11 0 21 5 23 12 4 10 13 10 45 0 22 -7 71 -12 108 -12 125 0
181 56 173 173 -4 53 -8 63 -40 93 -25 23 -63 41 -121 59 -47 14 -90 32 -97
40 -16 19 -4 52 23 61 66 21 133 -9 167 -77 11 -21 25 -39 30 -39 6 0 10 34
10 80 0 44 -4 80 -8 80 -4 0 -15 -8 -24 -17z"/>
<path d="M6392 924 c-8 -14 -14 -15 -42 -5 -48 16 -146 14 -186 -5 -51 -24
-74 -69 -74 -144 0 -57 3 -65 33 -95 24 -24 56 -40 119 -59 116 -35 137 -57
98 -96 -15 -15 -33 -20 -69 -20 -62 0 -107 30 -138 93 -13 26 -28 47 -33 47
-6 0 -10 -38 -10 -85 0 -66 3 -85 14 -85 7 0 19 6 25 14 11 13 17 13 46 0 44
-18 156 -18 200 0 50 21 75 68 75 141 0 101 -43 143 -179 175 -29 7 -62 21
-73 32 -17 17 -18 22 -5 41 41 62 162 23 197 -64 7 -16 19 -29 26 -29 11 0 14
19 14 80 0 63 -3 80 -15 80 -7 0 -18 -7 -23 -16z"/>
<path d="M6794 923 c-9 -14 -15 -15 -44 -5 -51 18 -150 15 -189 -6 -45 -24
-71 -74 -71 -135 0 -91 37 -127 170 -167 83 -24 100 -34 100 -60 0 -30 -33
-50 -86 -50 -68 0 -110 28 -137 90 -33 75 -47 65 -47 -35 0 -66 3 -85 14 -85
7 0 19 6 25 14 11 13 17 13 46 0 44 -18 156 -18 200 0 90 38 111 195 34 260
-17 14 -56 33 -87 41 -98 27 -132 45 -132 70 0 36 28 50 97 46 29 -1 87 -53
103 -91 7 -16 19 -30 26 -30 11 0 14 19 14 80 0 58 -4 80 -13 80 -6 0 -17 -7
-23 -17z"/>
<path d="M7047 929 c-115 -27 -169 -102 -170 -234 0 -80 22 -136 73 -178 44
-38 95 -50 193 -46 67 3 92 8 113 25 36 26 61 62 70 97 9 41 -21 35 -42 -8
-41 -87 -152 -106 -190 -32 -9 17 -19 59 -22 94 l-5 63 132 0 131 0 0 45 c0
92 -50 155 -140 174 -59 13 -90 13 -143 0z"/>
<path d="M7673 930 c-18 -4 -44 -15 -58 -24 -22 -14 -25 -15 -25 -1 0 13 -19
15 -120 15 -73 0 -120 -4 -120 -10 0 -5 11 -10 25 -10 l25 0 0 -200 0 -200
-25 0 c-14 0 -25 -4 -25 -10 0 -6 57 -10 150 -10 93 0 150 4 150 10 0 6 -13
10 -30 10 l-30 0 0 145 c0 103 4 156 14 180 15 36 58 71 75 61 16 -10 1 -36
-20 -36 -15 0 -19 -7 -19 -32 0 -39 7 -51 37 -67 33 -17 77 -13 107 10 22 17
26 28 26 70 0 40 -5 55 -25 74 -13 14 -31 25 -39 25 -8 0 -20 2 -28 4 -7 2
-28 0 -45 -4z"/>
<path d="M8283 930 c-119 -25 -173 -97 -173 -232 0 -86 21 -141 69 -181 45
-38 95 -50 194 -46 67 3 92 8 114 25 35 26 73 81 73 105 0 31 -24 21 -45 -18
-27 -49 -65 -75 -110 -75 -65 0 -104 61 -105 165 l0 37 130 0 130 0 0 47 c0
64 -31 124 -78 150 -43 25 -138 36 -199 23z"/>
<path d="M830 915 c0 -8 8 -15 19 -15 15 0 33 -39 97 -212 l79 -213 38 -3 c34
-3 37 -6 31 -25 -29 -95 -84 -172 -120 -165 -25 5 -30 28 -5 28 18 0 21 6 21
38 0 50 -24 72 -78 72 -56 0 -82 -26 -82 -80 0 -30 7 -47 24 -65 29 -29 101
-42 150 -25 72 23 91 63 237 492 48 141 56 158 77 158 13 0 22 6 22 15 0 12
-15 15 -75 15 -60 0 -75 -3 -75 -15 0 -10 10 -15 31 -15 21 0 30 -4 27 -12 -3
-7 -22 -64 -42 -125 -21 -62 -41 -115 -45 -117 -4 -3 -24 48 -45 112 -22 64
-41 123 -43 130 -3 8 4 12 21 12 16 0 26 6 26 15 0 13 -23 15 -145 15 -122 0
-145 -2 -145 -15z"/>
<path d="M4610 919 c-49 -20 -70 -49 -70 -99 0 -60 20 -80 81 -80 65 0 89 21
89 76 0 33 -4 44 -16 44 -25 0 -13 44 13 48 32 5 43 -30 43 -129 l0 -79 -62 0
c-119 0 -165 -26 -175 -99 -12 -87 36 -133 139 -134 44 0 66 5 86 20 26 20 27
20 53 1 27 -20 122 -28 167 -14 27 9 49 49 58 105 5 33 4 41 -9 41 -11 0 -19
-14 -24 -42 -6 -27 -14 -43 -23 -43 -12 0 -16 28 -20 155 -6 175 -14 200 -75
226 -40 16 -216 18 -255 3z"/>
<path d="M2040 910 c0 -5 14 -10 30 -10 l30 0 0 -200 0 -200 -25 0 c-14 0 -25
-4 -25 -10 0 -6 55 -10 145 -10 90 0 145 4 145 10 0 6 -13 10 -30 10 l-30 0 0
210 0 210 -120 0 c-73 0 -120 -4 -120 -10z"/>
<path d="M5770 910 c0 -5 11 -10 25 -10 l25 0 0 -200 0 -200 -25 0 c-14 0 -25
-4 -25 -10 0 -6 55 -10 145 -10 90 0 145 4 145 10 0 6 -11 10 -25 10 l-25 0 0
210 0 210 -120 0 c-73 0 -120 -4 -120 -10z"/>
<path d="M7810 910 c0 -5 11 -10 25 -10 l25 0 0 -200 0 -200 -25 0 c-14 0 -25
-4 -25 -10 0 -6 55 -10 145 -10 90 0 145 4 145 10 0 6 -11 10 -25 10 l-25 0 0
210 0 210 -120 0 c-73 0 -120 -4 -120 -10z"/>
</g>
</svg>
